<?xml version="1.0" encoding="utf-8"?>
<!-- Generator: Adobe Illustrator 26.0.3, SVG Export Plug-In . SVG Version: 6.00 Build 0)  -->
<svg version="1.1" id="Layer_1" xmlns="http://www.w3.org/2000/svg" xmlns:xlink="http://www.w3.org/1999/xlink" x="0px" y="0px"
	 viewBox="0 0 20 20" style="enable-background:new 0 0 20 20;" xml:space="preserve">
<g>
	<path d="M0.7,13.6V6c0-0.8,0.3-1.2,0.9-1.6l6.9-3.9c0.9-0.5,1.9-0.5,2.8,0l6.9,3.9C19,4.7,19.3,5.2,19.3,6v7.7c0,1.1-0.4,1.5-1.1,2
		l-7.4,4.1c-0.5,0.3-0.9,0.3-1.4,0l-7.4-4.1C1.1,15.2,0.7,14.7,0.7,13.6z M9.4,18.5v-8.1L1.8,6.2v7.4c0,0.5,0.1,0.8,0.7,1.1
		L9.4,18.5z M13.3,7.6L5.7,3.4L2.4,5.2L10,9.4L13.3,7.6z M17.6,5.2l-6.7-3.8c-0.6-0.3-1.2-0.3-1.7,0L6.8,2.7L14.4,7L17.6,5.2z
		 M18.2,13.6V6.2l-7.6,4.2v8.1l6.9-3.8C18,14.4,18.2,14.1,18.2,13.6z"/>
</g>
</svg>
