<?xml version="1.0" encoding="utf-8"?>
<!-- Generator: Adobe Illustrator 26.0.3, SVG Export Plug-In . SVG Version: 6.00 Build 0)  -->
<svg version="1.1" id="Layer_1" xmlns="http://www.w3.org/2000/svg" xmlns:xlink="http://www.w3.org/1999/xlink" x="0px" y="0px"
	 viewBox="0 0 20 20" style="enable-background:new 0 0 20 20;" xml:space="preserve">
<path d="M18.5,3.3h-17C0.7,3.3,0,3.9,0,4.7v11.9C0,17.4,0.7,18,1.5,18h17c0.8,0,1.5-0.6,1.5-1.4V4.7C20,3.9,19.3,3.3,18.5,3.3z
	 M19,16.6c0,0.3-0.2,0.5-0.5,0.5h-17c-0.3,0-0.5-0.2-0.5-0.5V4.7c0-0.2,0.2-0.5,0.5-0.5h17c0.3,0,0.5,0.2,0.5,0.5V16.6z"/>
<rect y="6.5" width="20" height="2"/>
<path d="M2.6,14.3v-1.6c0-0.5,0.4-0.8,0.9-0.8h2.2c0.5,0,0.9,0.3,0.9,0.8v1.6c0,0.5-0.4,0.8-0.9,0.8H3.5C3,15.1,2.6,14.8,2.6,14.3z"
	/>
</svg>
