<svg xmlns="http://www.w3.org/2000/svg" viewBox="0 0 409.6 408.91"><defs><style>.cls-1{fill:#fff;}</style></defs><g id="Layer_2" data-name="Layer 2"><g id="Layer_1-2" data-name="Layer 1"><path class="cls-1" d="M409.6,44.71V364.09c-.21.32-.57.63-.61,1-2.71,22.43-23.12,44.47-53.56,43.84-23.06-.48-46.13-.1-69.2-.1h-4.37V268.28c11.57,0,22.88-.13,34.19.08,3,.06,4.41-.92,5.49-3.69,6.94-17.69,14-35.31,21.1-53,.92-2.31,1.83-4.63,2.93-7.41h-64V200.1q0-22.15,0-44.31c0-11.12,3.56-14.92,14.74-15.17,10.66-.23,21.33-.08,32-.09h4.15V76.84c-18.84,0-37.37-.11-55.9.08a52.92,52.92,0,0,0-12.22,1.8c-36.25,9-59.45,38.74-59.55,76.1-.05,15,0,30.07,0,45.11v4.66h-51v63.79h50.66V408.7c-52.32,0-104.33.61-156.3-.29-21.65-.38-36.69-12.86-44.88-33-1.48-3.63-2.22-7.57-3.3-11.36V44.71A8.54,8.54,0,0,0,.73,43C4.48,23.05,16,9.71,35,2.7,38.14,1.53,41.52.89,44.8,0h320a8.78,8.78,0,0,0,1.75.73c20,3.74,33.32,15.26,40.34,34.16C408.07,38.07,408.71,41.43,409.6,44.71Z"/></g></g></svg>