<svg xmlns="http://www.w3.org/2000/svg" version="1.1" xmlns:xlink="http://www.w3.org/1999/xlink" xmlns:svgjs="http://svgjs.com/svgjs" width="1000" height="1000"><rect width="1000" height="1000" rx="200" ry="200" fill="#eeeee7"></rect><g transform="matrix(25.77319587628866,0,0,25.77319587628866,137.377286457573,100.49214487810099)"><svg xmlns="http://www.w3.org/2000/svg" version="1.1" xmlns:xlink="http://www.w3.org/1999/xlink" xmlns:svgjs="http://svgjs.com/svgjs" width="28.17" height="31.04"><svg xmlns="http://www.w3.org/2000/svg" viewBox="0 0 28.17 31.04"><defs><style>.cls-1{fill:#ff501e;}.cls-2{fill:#373234;}</style></defs><g id="Layer_2" data-name="Layer 2"><g id="Layer_1-2" data-name="Layer 1"><rect class="cls-1" y="9.64" width="15.15" height="5.68"></rect><path class="cls-2" d="M18.74,31a12.67,12.67,0,0,1-4.18-.61,9.25,9.25,0,0,1-2.9-1.62,8.86,8.86,0,0,1-1.84-2.14l2.67-1.88c.3.4.69.86,1.15,1.37a5.8,5.8,0,0,0,1.91,1.35,7.4,7.4,0,0,0,3.19.58,7.11,7.11,0,0,0,4.36-1.28,4.66,4.66,0,0,0,1.72-4V18.37h-.28q-.37.6-1.05,1.47a5.82,5.82,0,0,1-1.93,1.55,7.2,7.2,0,0,1-3.39.68,9.06,9.06,0,0,1-4.73-1.25,8.83,8.83,0,0,1-3.32-3.64,12.78,12.78,0,0,1-1.21-5.8,13.47,13.47,0,0,1,1.18-5.84,9.17,9.17,0,0,1,3.28-3.86A8.64,8.64,0,0,1,18.23.31a7,7,0,0,1,3.39.7A6.16,6.16,0,0,1,23.55,2.6c.45.59.8,1.08,1,1.46h.34V.59h3.24V23a7.62,7.62,0,0,1-1.27,4.58,7.35,7.35,0,0,1-3.41,2.6A12.87,12.87,0,0,1,18.74,31Zm-.11-12A6,6,0,0,0,22,18.13a5.74,5.74,0,0,0,2.11-2.65,10.62,10.62,0,0,0,.73-4.15,11.37,11.37,0,0,0-.71-4.16,6.25,6.25,0,0,0-2.11-2.83,5.63,5.63,0,0,0-3.43-1A5.7,5.7,0,0,0,15.08,4.4,6.51,6.51,0,0,0,13,7.29a11.13,11.13,0,0,0-.71,4,10.43,10.43,0,0,0,.72,4,6.09,6.09,0,0,0,2.13,2.73A6,6,0,0,0,18.63,19.05Z"></path><path class="cls-1" d="M1.78,30.45V8a9.3,9.3,0,0,1,1-4.47A6.16,6.16,0,0,1,5.48.88,9.09,9.09,0,0,1,9.62,0a18.44,18.44,0,0,1,2.91.23c.94.15,1.64.28,2.09.39L13.49,6.25a9.11,9.11,0,0,0-1-.21,7.51,7.51,0,0,0-1-.07A1.87,1.87,0,0,0,10,6.43a1.9,1.9,0,0,0-.39,1.24V30.45Z"></path></g></g></svg></svg></g></svg>