<?xml version="1.0" encoding="utf-8"?>
<!-- Generator: Adobe Illustrator 26.0.3, SVG Export Plug-In . SVG Version: 6.00 Build 0)  -->
<svg version="1.1" id="Layer_1" xmlns="http://www.w3.org/2000/svg" xmlns:xlink="http://www.w3.org/1999/xlink" x="0px" y="0px"
	 viewBox="0 0 20 20" style="enable-background:new 0 0 20 20;" xml:space="preserve">
<style type="text/css">
	.st0{display:none;}
	.st1{fill:#FFFFFF;}
</style>
<path class="st0" d="M9.5,19c-0.1,0-0.2,0-0.2-0.1c-0.1-0.1-2.3-1.3-4.6-3.3c-1.3-1.2-2.4-2.4-3.2-3.7C0.5,10.3,0,8.8,0,7.2
	C0,4.4,2.4,2,5.2,2c1,0,2,0.4,2.9,1c0.5,0.4,1,0.9,1.3,1.4c0.3-0.5,0.8-1,1.3-1.4c0.9-0.7,2-1,2.9-1C16.6,2,19,4.4,19,7.2
	c0,1.5-0.5,3.1-1.5,4.7c-0.8,1.2-1.8,2.5-3.2,3.7c-2.3,2-4.5,3.3-4.6,3.3C9.7,19,9.6,19,9.5,19L9.5,19z"/>
<path class="st1" d="M9.5,18.5c0,0-2.3-1.3-4.5-3.3c-1.3-1.2-2.3-2.4-3.1-3.6c-0.9-1.5-1.4-3-1.4-4.4c0-2.6,2.1-4.8,4.8-4.8
	c0.9,0,1.8,0.3,2.6,0.9c0.5,0.4,0.9,0.8,1.2,1.2l0.4,0.6l0.4-0.6c0.3-0.5,0.7-0.9,1.2-1.2c0.8-0.6,1.8-0.9,2.6-0.9
	c2.6,0,4.8,2.1,4.8,4.8c0,1.4-0.5,2.9-1.4,4.4c-0.7,1.2-1.8,2.4-3.1,3.6C11.8,17.2,9.5,18.5,9.5,18.5L9.5,18.5
	C9.5,18.5,9.5,18.5,9.5,18.5z"/>
<path class="st0" d="M5.2,3C2.9,3,1,4.9,1,7.2c0,3,2.3,5.8,4.3,7.6c1.8,1.6,3.5,2.7,4.2,3.1c0.6-0.4,2.4-1.5,4.2-3.1
	c2-1.8,4.3-4.5,4.3-7.6C18,4.9,16.1,3,13.8,3C12,3,10.4,4.4,10,5.7C9.9,5.9,9.7,6,9.5,6S9.1,5.9,9,5.7C8.6,4.4,7,3,5.2,3z"/>
</svg>
