<svg xmlns="http://www.w3.org/2000/svg" viewBox="0 0 408.81 409.6"><defs><style>.cls-1{fill:#fff;}</style></defs><g id="Layer_2" data-name="Layer 2"><g id="Layer_1-2" data-name="Layer 1"><path class="cls-1" d="M289,409.6H119.78c-3.67-.53-7.34-1-11-1.58A123.66,123.66,0,0,1,36.9,371.39C12,345.93,0,315,0,279.36Q0,205,0,130.64c0-21.25,4.05-41.58,13.93-60.48C31.29,37,57.89,14.87,94,4.81,102.4,2.48,111.18,1.57,119.78,0H289a10.38,10.38,0,0,0,1.9.53,123.23,123.23,0,0,1,59.33,20.06c27,17.7,45.12,42.08,53.67,73.27,2.33,8.52,3.28,17.42,4.87,26.14V289.6a29.34,29.34,0,0,0-.6,3,121.82,121.82,0,0,1-13.36,46.86c-17.38,33.16-44,55.24-80.06,65.28C306.41,407.12,297.64,408,289,409.6ZM38.33,204.8c0,24.94-.14,49.87.1,74.8a97.53,97.53,0,0,0,2,20.63c9.72,42.78,45.08,70.9,88.93,70.95q75,.1,150.09-.07a92.29,92.29,0,0,0,20.19-2c42.7-9.74,70.76-45.17,70.82-89.1q.11-75.19-.07-150.39a93.33,93.33,0,0,0-2-20.23c-9.65-42.47-44.84-70.79-88.13-70.93-50.56-.16-101.13-.06-151.69,0-12.92,0-25.49,2.19-37.15,7.87-34.62,16.87-52.4,44.8-53,83.32C38,154.67,38.33,179.74,38.33,204.8ZM204.44,307.19c-56.3,0-102.4-46.23-102.22-102.56s46-102.19,102.16-102.22S306.78,148.64,306.6,205,260.62,307.16,204.44,307.19Zm63.83-102.36a64.14,64.14,0,0,0-63.63-64c-35.15-.15-64.07,28.7-64.09,63.95a64.17,64.17,0,0,0,63.62,64C239.31,268.94,268.25,240.06,268.27,204.83ZM327.89,94.65a13.8,13.8,0,0,0-13.48-13.57,13.64,13.64,0,0,0-13.66,13.71,13.47,13.47,0,0,0,13.4,13.48A13.63,13.63,0,0,0,327.89,94.65Z"/></g></g></svg>