<svg xmlns="http://www.w3.org/2000/svg" viewBox="0 0 332.13 409.19"><defs><style>.cls-1{fill:#fff;}</style></defs><g id="Layer_2" data-name="Layer 2"><g id="Layer_1-2" data-name="Layer 1"><path class="cls-1" d="M75.87,409.19c-1-3.93-2.42-7.8-3-11.79-3.1-22.31-5.37-44.77-2.52-67.21,1.67-13.11,5.13-26,8.26-38.93,7.67-31.63,15.65-63.18,23.37-94.8a11.67,11.67,0,0,0-.48-6.4c-8.13-22.38-9.52-44.72,1-66.66,6.66-13.81,17.05-23.64,32.68-26.79,21-4.24,38.43,9.26,39.58,30.67.61,11.36-2.1,22.19-5.29,32.91-4.93,16.54-10.06,33-15.12,49.54-9.19,30,14.89,50,40.62,48.26,28.11-2,47.26-17.39,60.91-40.73,11.32-19.34,16.05-40.61,17.27-62.82.87-16-.5-31.58-6.2-46.67-9.27-24.53-25.95-42.48-49.74-52.87C180,38.61,142.17,39.41,105.89,57.67,73.25,74.08,54,101.42,48.83,137.83c-3.61,25.45,2.24,48.85,17.87,69.52a9.79,9.79,0,0,1,1.81,9c-2.24,8.48-4.39,17-6.69,25.44-1.6,5.9-4,7-9.66,4.34C38.87,239.86,28.78,230,20.9,217.83c-18-27.73-24.67-58.06-18.84-90.66C13,65.94,50.1,27.66,108.41,9.39A198.09,198.09,0,0,1,218.29,6.32c39.93,10.22,72.41,31.73,94.28,67.31,14.27,23.23,20.57,48.79,19.44,76.13s-7.26,53.43-20.6,77.48c-19.12,34.46-47,58.05-85.87,67.2-21,4.95-41.93,5.08-62.13-4.08-9.72-4.41-18.35-10.17-24.4-19.23a1.57,1.57,0,0,0-1.5-1C134,283,129.94,295.77,127,308.8c-8.11,36.28-26.08,67.73-46.88,97.88-.59.86-1.25,1.68-1.88,2.51Z"/></g></g></svg>