<?xml version="1.0" encoding="utf-8"?>
<!-- Generator: Adobe Illustrator 26.0.3, SVG Export Plug-In . SVG Version: 6.00 Build 0)  -->
<svg version="1.1" id="Layer_1" xmlns="http://www.w3.org/2000/svg" xmlns:xlink="http://www.w3.org/1999/xlink" x="0px" y="0px"
	 viewBox="0 0 20 20" style="enable-background:new 0 0 20 20;" xml:space="preserve">
<style type="text/css">
	.st0{display:none;}
	
		.st1{clip-path:url(#SVGID_00000081644961113208580480000017458081252042395565_);fill:url(#SVGID_00000003100493534167789380000010971483628770246284_);}
</style>
<path class="st0" d="M16.3,17.1C18,15.3,19,13,19,10.5c0-2.4-0.9-4.6-2.4-6.4l0.7-0.7l0.6,0.6c0.1,0.1,0.2,0.1,0.4,0.1
	s0.3,0,0.4-0.1c0.2-0.2,0.2-0.5,0-0.7l-2-2c-0.2-0.2-0.5-0.2-0.7,0s-0.2,0.5,0,0.7l0.6,0.6l-0.7,0.7C14.1,1.9,11.9,1,9.5,1
	S4.9,1.9,3.1,3.4L2.5,2.7l0.6-0.6c0.2-0.2,0.2-0.5,0-0.7s-0.5-0.2-0.7,0l-2,2c-0.2,0.2-0.2,0.5,0,0.7c0.1,0.1,0.2,0.1,0.4,0.1
	s0.3,0,0.4-0.1l0.6-0.6l0.7,0.7C0.9,5.9,0,8.1,0,10.5c0,2.5,1,4.8,2.7,6.6l-2,2c-0.2,0.2-0.2,0.5,0,0.7C0.7,20,0.9,20,1,20
	s0.3,0,0.4-0.1l2.1-2.1C5.1,19.2,7.3,20,9.5,20s4.4-0.8,6.1-2.2l2.1,2.1C17.7,20,17.9,20,18,20s0.3,0,0.4-0.1c0.2-0.2,0.2-0.5,0-0.7
	C18.4,19.1,16.3,17.1,16.3,17.1z M1,10.5C1,5.8,4.8,2,9.5,2S18,5.8,18,10.5S14.2,19,9.5,19S1,15.2,1,10.5z"/>
<path class="st0" d="M15.1,7.2C15,7,14.7,6.9,14.4,7.1L9.5,9.9L5.7,7.2C5.5,7.1,5.2,7.1,5,7.3S4.9,7.9,5.1,8l4.1,2.9c0,0,0,0,0,0
	c0,0,0,0,0,0c0,0,0,0,0,0c0,0,0,0,0,0c0,0,0,0,0,0c0,0,0,0,0,0c0,0,0,0,0,0c0,0,0,0,0,0c0,0,0,0,0,0c0,0,0,0,0,0c0,0,0,0,0,0
	c0,0,0,0,0,0c0,0,0,0,0,0c0,0,0,0,0,0c0,0,0,0,0,0c0,0,0,0,0,0c0,0,0,0,0,0l0,0c0,0,0,0,0,0c0,0,0,0,0.1,0c0,0,0,0,0,0
	c0,0,0,0,0.1,0c0,0,0,0,0,0c0,0,0,0,0.1,0c0,0,0,0,0,0c0,0,0,0,0,0c0,0,0,0,0,0c0,0,0,0,0,0l5.2-3C15.2,7.8,15.3,7.5,15.1,7.2
	L15.1,7.2z"/>
<g>
	<defs>
		<path id="SVGID_1_" d="M0.5,10c0-5.2,4.3-9.5,9.5-9.5c5.2,0,9.5,4.3,9.5,9.5c0,5.2-4.3,9.5-9.5,9.5C4.8,19.5,0.5,15.2,0.5,10z
			 M17.9,10c0-4.4-3.5-7.9-7.9-7.9c-4.4,0-7.9,3.5-7.9,7.9c0,4.4,3.5,7.9,7.9,7.9C14.4,17.9,17.9,14.4,17.9,10z M6.3,8
			c0-0.7,0.4-1.2,1-1.2c0.5,0,1,0.5,1,1.2s-0.5,1.2-1,1.2C6.8,9.2,6.3,8.7,6.3,8z M7.2,12.5c0.7,0.4,1.5,0.8,2.8,0.8
			c1.3,0,2.2-0.4,2.8-0.8c0.2-0.1,0.4,0,0.4,0.2c0,0.6-1.3,1.9-3.2,1.9c-1.9,0-3.2-1.3-3.2-1.9C6.8,12.5,7,12.4,7.2,12.5z M11.7,8
			c0-0.7,0.5-1.2,1-1.2c0.5,0,1,0.5,1,1.2s-0.5,1.2-1,1.2C12.2,9.2,11.7,8.7,11.7,8z"/>
	</defs>
	<clipPath id="SVGID_00000116204839156307078300000014730792059677993913_">
		<use xlink:href="#SVGID_1_"  style="overflow:visible;"/>
	</clipPath>
	
		<radialGradient id="SVGID_00000058566587737168605170000007403994804494944925_" cx="10" cy="10" r="16.5448" fx="-1.0544" fy="-0.9563" gradientUnits="userSpaceOnUse">
		<stop  offset="0.1947" style="stop-color:#FFAF55"/>
		<stop  offset="0.3042" style="stop-color:#FF9E4B"/>
		<stop  offset="0.6135" style="stop-color:#FF7433"/>
		<stop  offset="0.856" style="stop-color:#FF5A24"/>
		<stop  offset="1" style="stop-color:#FF501E"/>
	</radialGradient>
	
		<rect style="clip-path:url(#SVGID_00000116204839156307078300000014730792059677993913_);fill:url(#SVGID_00000058566587737168605170000007403994804494944925_);" width="20" height="20"/>
</g>
</svg>
