<?xml version="1.0" encoding="utf-8"?>
<!-- Generator: Adobe Illustrator 26.0.3, SVG Export Plug-In . SVG Version: 6.00 Build 0)  -->
<svg version="1.1" id="Layer_1" xmlns="http://www.w3.org/2000/svg" xmlns:xlink="http://www.w3.org/1999/xlink" x="0px" y="0px"
	 viewBox="0 0 20 20" style="enable-background:new 0 0 20 20;" xml:space="preserve">
<style type="text/css">
	.st0{display:none;}
</style>
<path fill="#FF501ECC" d="M15.5,19c-0.1,0-0.2,0-0.2-0.1L10,16.1l-5.3,2.9c-0.2,0.1-0.4,0.1-0.5,0S4,18.6,4,18.4l1-5.7L1.1,8.9C1,8.7,1,8.5,1,8.3
	C1.1,8.2,1.2,8,1.4,8l5.7-1l2.4-4.8C9.6,2.1,9.8,2,10,2s0.4,0.1,0.4,0.3L12.8,7l5.7,1c0.2,0,0.3,0.2,0.4,0.3s0,0.4-0.1,0.5L15,12.7
	l1,5.7c0,0.2,0,0.4-0.2,0.5C15.7,19,15.6,19,15.5,19z"/>
<path class="st0" d="M10,15c0.1,0,0.2,0,0.2,0.1l4.6,2.5l-0.8-5c0-0.2,0-0.3,0.1-0.4l3.3-3.3l-5-0.8c-0.2,0-0.3-0.1-0.4-0.3L10,3.6
	L7.9,7.7C7.9,7.9,7.7,8,7.6,8l-5,0.8l3.3,3.3C6,12.3,6,12.4,6,12.6l-0.8,5l4.6-2.5C9.8,15,9.9,15,10,15z"/>
</svg>
