<?xml version="1.0" encoding="utf-8"?>
<!-- Generator: Adobe Illustrator 26.0.3, SVG Export Plug-In . SVG Version: 6.00 Build 0)  -->
<svg version="1.1" id="Layer_1" xmlns="http://www.w3.org/2000/svg" xmlns:xlink="http://www.w3.org/1999/xlink" x="0px" y="0px"
	 viewBox="0 0 20 20" style="enable-background:new 0 0 20 20;" xml:space="preserve">
<style type="text/css">
	.st0{display:none;}
</style>
<path class="st0" d="M9.5,20c-2.5,0-4.9-1-6.7-2.8S0,13,0,10.5C0,8,1,5.6,2.8,3.8S7,1,9.5,1s4.9,1,6.7,2.8S19,8,19,10.5
	s-1,4.9-2.8,6.7S12,20,9.5,20z M9.5,2C4.8,2,1,5.8,1,10.5S4.8,19,9.5,19s8.5-3.8,8.5-8.5S14.2,2,9.5,2z"/>
<path d="M6.4,17.4c-0.2,0-0.5-0.1-0.6-0.3l-5.5-5.5c-0.4-0.4-0.4-0.9,0-1.3c0.4-0.4,0.9-0.4,1.3,0l4.8,4.8L18.4,3.1
	c0.4-0.4,0.9-0.4,1.3,0s0.4,0.9,0,1.3L7,17.1C6.8,17.3,6.6,17.4,6.4,17.4L6.4,17.4z"/>
</svg>
