<svg xmlns="http://www.w3.org/2000/svg" viewBox="0 0 530.89 109.43"><defs><style>.cls-1{fill:#8567f7;}.cls-2{fill:#a9d4d8;}</style></defs><g id="Layer_2" data-name="Layer 2"><g id="Layer_1-2" data-name="Layer 1"><path class="cls-1" d="M530.89,63.4V86.22c-8-.21-16-.29-17.9-.09a16.18,16.18,0,0,0-4,.86V67.65c.55-.27,1.12-.55,1.7-.8C513.32,65.68,522.2,64.37,530.89,63.4Z"/><path class="cls-2" d="M20.11,32.4V20.23H0v68.9H21.9V57.37q0-7.68,3.14-11.07a11.67,11.67,0,0,1,4.83-3.11V23.87A25.13,25.13,0,0,0,20.11,32.4Zm50,10.8V18.13c-2.84,0-10.5.6-18.31,1.48V42.42C59.5,42.62,67.33,42.93,70.09,43.2ZM51.78,19.61V0H29.87V23.87c.55-.29,1.12-.56,1.7-.82C34.2,21.88,43.08,20.58,51.78,19.61ZM33.87,42.33a16.65,16.65,0,0,0-4,.86V65.44a28.62,28.62,0,0,0,3,13.45,19.89,19.89,0,0,0,8.45,8.58,27.61,27.61,0,0,0,13.18,2.94,38.49,38.49,0,0,0,8.33-.82,26.58,26.58,0,0,0,7.3-2.89V67.62a14.5,14.5,0,0,1-4.29,1.79,20.67,20.67,0,0,1-5.19.64c-3,0-5.2-.79-6.65-2.37s-2.18-4-2.18-7.36V42.42C43.73,42.22,35.81,42.13,33.87,42.33Z"/><path class="cls-2" d="M109.19,89.13v-5.2a17.05,17.05,0,0,1-6.5,4.7,23.67,23.67,0,0,1-8.9,1.5q-8.4,0-13.55-4.65a15.72,15.72,0,0,1-5.15-12.25q0-7.89,6.2-12.05T99,57q2.2,0,4.2.15c1.33.1,2.57.25,3.7.45V55a7.21,7.21,0,0,0-2-5.4,7.65,7.65,0,0,0-5.55-1.9,7.88,7.88,0,0,0-5.55,1.9A8.76,8.76,0,0,0,91.29,55H75.89a22.53,22.53,0,0,1,3.6-11,20.87,20.87,0,0,1,8.25-7.2,26.13,26.13,0,0,1,11.75-2.55q11.1,0,17.3,5.7t6.2,15.9v33.2Zm-18-16.4a5.1,5.1,0,0,0,1.75,4.1,7.22,7.22,0,0,0,4.85,1.5,10.52,10.52,0,0,0,6.7-1.9,6.26,6.26,0,0,0,2.4-5.2v-3.4a32.89,32.89,0,0,0-3.5-.55q-1.61-.15-3.3-.15a12.81,12.81,0,0,0-6.6,1.4A4.62,4.62,0,0,0,91.19,72.73Z"/><path class="cls-2" d="M183.39,62.23a32.38,32.38,0,0,1-3,14.1,25.23,25.23,0,0,1-8.35,10,21.48,21.48,0,0,1-12.65,3.75,20.08,20.08,0,0,1-7.8-1.5,22.71,22.71,0,0,1-6.8-4.5v24.3h-17.1V35.33h15.7v6.1a23,23,0,0,1,7.3-5.3,21,21,0,0,1,8.7-1.8A21.48,21.48,0,0,1,172,38.08a25.18,25.18,0,0,1,8.35,10.1A32.51,32.51,0,0,1,183.39,62.23Zm-17.8,0q0-6.3-3.2-9.4a10,10,0,0,0-7.1-3.1,9.83,9.83,0,0,0-5,1.4,10.2,10.2,0,0,0-3.85,4.15,15.06,15.06,0,0,0-1.45,7,14.62,14.62,0,0,0,1.5,7,9.75,9.75,0,0,0,3.85,4.05,9.9,9.9,0,0,0,12-1.75Q165.59,68.64,165.59,62.23Z"/><path class="cls-2" d="M205.29,60.83v28.3h-17.1V17.33h17.1v23.8a23.81,23.81,0,0,1,6.2-5,19.51,19.51,0,0,1,21.45,3.4q5.06,5.2,5.05,15v34.6h-17.1V60.23q0-5.1-1.85-7.8a6.48,6.48,0,0,0-5.75-2.7,7.36,7.36,0,0,0-6.9,4.6A15.92,15.92,0,0,0,205.29,60.83Z"/><path class="cls-2" d="M283.29,72.33v14.9a20.38,20.38,0,0,1-5.7,2.25,29.38,29.38,0,0,1-6.5.65,21.49,21.49,0,0,1-10.3-2.3,15.53,15.53,0,0,1-6.6-6.7,22.41,22.41,0,0,1-2.3-10.5V50.23h-10V35.33h10V19.53H269v15.8h14.7v14.9H269v16.4q0,3.9,1.7,5.75c1.13,1.24,2.87,1.85,5.2,1.85a15.94,15.94,0,0,0,4.05-.5A11.26,11.26,0,0,0,283.29,72.33Z"/><path class="cls-2" d="M337.49,70.83q0,8.91-6.4,14.1t-18.6,5.2q-12.11,0-18.7-5.35t-7.4-14.65h16.4a6.29,6.29,0,0,0,2.8,5.4,12.06,12.06,0,0,0,7.2,2,15.18,15.18,0,0,0,5.15-.8,2.93,2.93,0,0,0,2.25-2.9,3,3,0,0,0-1.35-2.7,11.36,11.36,0,0,0-4.15-1.4l-10.6-1.9a21.4,21.4,0,0,1-11.2-5.3,13.81,13.81,0,0,1-4.2-10.5,15.64,15.64,0,0,1,2.8-9.2,18.5,18.5,0,0,1,7.95-6.25,30.15,30.15,0,0,1,12.15-2.25,31.21,31.21,0,0,1,12.5,2.35,20.92,20.92,0,0,1,8.65,6.75,19.87,19.87,0,0,1,3.75,10.4h-16.4a7.06,7.06,0,0,0-2.6-5,9,9,0,0,0-5.8-1.85,11.47,11.47,0,0,0-4.8.85,2.79,2.79,0,0,0-1.8,2.65,2.48,2.48,0,0,0,1.3,2.4,14,14,0,0,0,3.8,1.2l11.4,2.1q7.8,1.41,11.85,5.15A12.45,12.45,0,0,1,337.49,70.83Z"/><path class="cls-2" d="M376.29,89.13v-5.2a17.05,17.05,0,0,1-6.5,4.7,23.67,23.67,0,0,1-8.9,1.5q-8.4,0-13.55-4.65a15.72,15.72,0,0,1-5.15-12.25q0-7.89,6.2-12.05T366.09,57q2.21,0,4.2.15c1.33.1,2.57.25,3.7.45V55a7.21,7.21,0,0,0-1.95-5.4,7.65,7.65,0,0,0-5.55-1.9,7.88,7.88,0,0,0-5.55,1.9,8.76,8.76,0,0,0-2.55,5.4H343a22.53,22.53,0,0,1,3.6-11,20.87,20.87,0,0,1,8.25-7.2,26.13,26.13,0,0,1,11.75-2.55q11.1,0,17.3,5.7t6.2,15.9v33.2Zm-18-16.4a5.1,5.1,0,0,0,1.75,4.1,7.22,7.22,0,0,0,4.85,1.5,10.52,10.52,0,0,0,6.7-1.9,6.26,6.26,0,0,0,2.4-5.2v-3.4a32.89,32.89,0,0,0-3.5-.55q-1.61-.15-3.3-.15a12.81,12.81,0,0,0-6.6,1.4A4.62,4.62,0,0,0,358.29,72.73Z"/><path class="cls-2" d="M411.89,60.83v28.3h-17.1V35.33h15.7v6.5a25.54,25.54,0,0,1,7.05-5.5,19.2,19.2,0,0,1,8.95-2,17.42,17.42,0,0,1,13.05,5.2q5.06,5.2,5,15v34.6h-17.1V60.23q0-5.1-1.85-7.8a6.48,6.48,0,0,0-5.75-2.7,7.36,7.36,0,0,0-6.9,4.6A15.92,15.92,0,0,0,411.89,60.83Z"/><path class="cls-2" d="M476.29,109.43a31.76,31.76,0,0,1-13.1-2.55,21.34,21.34,0,0,1-9-7.25,20.23,20.23,0,0,1-3.6-10.9h16.6a8.36,8.36,0,0,0,2.75,5.5,9.37,9.37,0,0,0,6.25,1.9q4.8,0,7.25-2.5t2.45-7.4v-6.3a14.15,14.15,0,0,1-5.7,4.7,18.42,18.42,0,0,1-8,1.7,21.15,21.15,0,0,1-11.8-3.45,24.46,24.46,0,0,1-8.4-9.35,27.88,27.88,0,0,1-3.1-13.2,29.83,29.83,0,0,1,2.9-13.45,22.94,22.94,0,0,1,8-9.2,20.85,20.85,0,0,1,11.7-3.35,23.55,23.55,0,0,1,8.9,1.55,19.31,19.31,0,0,1,6.9,4.95v-5.5H503V86q0,10.91-7.15,17.15T476.29,109.43Zm-10.1-49a11.79,11.79,0,0,0,2.6,8,8.67,8.67,0,0,0,6.9,3,9.67,9.67,0,0,0,5.25-1.4,9.47,9.47,0,0,0,3.5-3.9,12.83,12.83,0,0,0,1.25-5.8,11.6,11.6,0,0,0-2.75-8,9.31,9.31,0,0,0-7.25-3.05,8.62,8.62,0,0,0-6.9,3.05A12.17,12.17,0,0,0,466.19,60.43Z"/></g></g></svg>