<svg xmlns="http://www.w3.org/2000/svg" viewBox="0 0 100 90.41"><defs><style>.cls-1{fill:#8567f7;}.cls-2{fill:#a9d4d8;}</style></defs><g id="Layer_2" data-name="Layer 2"><g id="Layer_1-2" data-name="Layer 1"><path class="cls-1" d="M100,63.4V86.22c-8-.21-16-.29-17.9-.09a16.08,16.08,0,0,0-4,.86V67.65c.55-.27,1.12-.55,1.69-.8C82.43,65.68,91.3,64.37,100,63.4Z"/><path class="cls-2" d="M20.11,32.4V20.23H0v68.9H21.9V57.37q0-7.68,3.14-11.07a11.67,11.67,0,0,1,4.83-3.11V23.87A25.13,25.13,0,0,0,20.11,32.4Zm50,10.8V18.13c-2.84,0-10.5.6-18.31,1.48V42.42C59.5,42.62,67.33,42.93,70.09,43.2ZM51.78,19.61V0H29.87V23.87c.55-.29,1.12-.56,1.7-.82C34.2,21.88,43.08,20.58,51.78,19.61ZM33.87,42.33a16.65,16.65,0,0,0-4,.86V65.44a28.62,28.62,0,0,0,3,13.45,19.89,19.89,0,0,0,8.45,8.58,27.61,27.61,0,0,0,13.18,2.94,38.49,38.49,0,0,0,8.33-.82,26.58,26.58,0,0,0,7.3-2.89V67.62a14.5,14.5,0,0,1-4.29,1.79,20.67,20.67,0,0,1-5.19.64c-3,0-5.2-.79-6.65-2.37s-2.18-4-2.18-7.36V42.42C43.73,42.22,35.81,42.13,33.87,42.33Z"/></g></g></svg>