<?xml version="1.0" encoding="utf-8"?>
<!-- Generator: Adobe Illustrator 25.3.1, SVG Export Plug-In . SVG Version: 6.00 Build 0)  -->
<svg version="1.1" id="Layer_1" xmlns:svgjs="http://svgjs.com/svgjs"
	 xmlns="http://www.w3.org/2000/svg" xmlns:xlink="http://www.w3.org/1999/xlink" x="0px" y="0px" viewBox="0 0 1000 1000"
	 style="enable-background:new 0 0 1000 1000;" xml:space="preserve">
<style type="text/css">
	.st0{fill:#9C84B2;}
	.st1{fill:#FF501E;}
	.st2{fill:#373234;}
	.st3{fill:#FFFFFF;}
	.st4{fill:#F4CA39;}
	.st5{fill:#164271;}
	.st6{fill:#F1583F;}
</style>
<path class="st0" d="M200-3986.3h600c110.5,0,200,89.5,200,200v600c0,110.5-89.5,200-200,200H200c-110.5,0-200-89.5-200-200v-600
	C0-3896.8,89.5-3986.3,200-3986.3z"/>
<g transform="matrix(25.77319587628866,0,0,25.77319587628866,137.377286457573,100.49214487810099)">
	<g id="Layer_2_1_">
		<g id="Layer_1-2">
			<rect x="39.9" y="9.6" class="st1" width="15.1" height="5.7"/>
			<path class="st2" d="M58.6,31c-1.4,0-2.8-0.2-4.2-0.6c-1.1-0.4-2-0.9-2.9-1.6c-0.7-0.6-1.3-1.3-1.8-2.1l2.7-1.9
				c0.3,0.4,0.7,0.9,1.1,1.4c0.5,0.6,1.2,1,1.9,1.4c1,0.4,2.1,0.6,3.2,0.6c1.6,0.1,3.1-0.4,4.4-1.3c1.2-1,1.8-2.5,1.7-4v-4.4h-0.3
				c-0.2,0.4-0.6,0.9-1,1.5c-0.5,0.6-1.2,1.2-1.9,1.5c-1.1,0.5-2.2,0.7-3.4,0.7c-1.7,0-3.3-0.4-4.7-1.2c-1.4-0.9-2.6-2.1-3.3-3.6
				c-0.9-1.8-1.3-3.8-1.2-5.8c0-2,0.4-4,1.2-5.8c0.7-1.6,1.8-2.9,3.3-3.9c1.4-0.9,3.1-1.4,4.9-1.4c1.2-0.1,2.3,0.2,3.4,0.7
				c0.7,0.4,1.4,0.9,1.9,1.6c0.5,0.6,0.8,1.1,1,1.5h0.3V0.6H68V23c0.1,1.6-0.4,3.2-1.3,4.6c-0.9,1.2-2,2.1-3.4,2.6
				C61.8,30.7,60.2,31,58.6,31z M58.5,19c1.2,0,2.4-0.3,3.4-0.9c1-0.7,1.7-1.6,2.1-2.6c0.5-1.3,0.8-2.7,0.7-4.1
				c0-1.4-0.2-2.8-0.7-4.2c-0.4-1.1-1.1-2.1-2.1-2.8c-1-0.7-2.2-1-3.4-1c-1.3,0-2.5,0.3-3.5,1.1c-0.9,0.8-1.7,1.8-2.1,2.9
				c-0.5,1.3-0.7,2.6-0.7,4c0,1.4,0.2,2.7,0.7,4c0.4,1.1,1.2,2,2.1,2.7C56.1,18.7,57.3,19.1,58.5,19L58.5,19z"/>
			<path class="st1" d="M41.7,30.5V8c0-1.6,0.3-3.1,1-4.5c0.6-1.1,1.5-2.1,2.7-2.7C46.7,0.3,48.1,0,49.5,0c1,0,1.9,0.1,2.9,0.2
				c0.9,0.2,1.6,0.3,2.1,0.4l-1.1,5.6c-0.3-0.1-0.7-0.2-1-0.2C52,6,51.7,6,51.4,6c-0.5-0.1-1.1,0.1-1.5,0.5
				c-0.3,0.4-0.4,0.8-0.4,1.2v22.8H41.7z"/>
		</g>
	</g>
</g>
<text transform="matrix(1 0 0 1 -92.1703 1819.7542)" class="st2" style="font-family:'HelveticaNeueLTPro-Bd'; font-size:800px;">A</text>
<text transform="matrix(1 0 0 1 380.1701 1819.7542)" class="st2" style="font-family:'HelveticaNeueLTPro-Bd'; font-size:800px;">B</text>
<g>
	<g>
		<path class="st3" d="M570.9-3537.8v0.8h0.1L570.9-3537.8z"/>
	</g>
	<g>
		<path class="st3" d="M802.2-3509.5c47-23.1,72.4-58.2,72.4-111.2c0-99.2-68.6-132.1-170.1-132.1H535.1l15.2,91h130.3
			c41.8,0,80.6,11.2,80.6,61.2c0,44.8-29.8,63.4-71.6,63.4H571l13.3,79.8h114.2c50.7,0,84.3,21.6,84.3,76.1
			c0,55.2-41,70.1-86.6,70.1h-87.5l15.2,91h88c96.2,0,188-46.3,188-154.4C899.9-3440.8,867.8-3490.8,802.2-3509.5z"/>
		<path class="st3" d="M608.7-3311l-10.1-60.7l-1.4-8.6l-107.6,41.7h0.8l1.2,8.4l15.9,110.2h116.4L608.7-3311z M597.1-3380.3
			l-1.5-9.3l-11.3-67.6l-13.3-79.8h-0.1v-0.8l-20.6-123.9l-15.2-91H414.9l-53.8,91l-139.3,235.8h115.6l114.9-211.9h1.5l24.9,202.4
			l1.2,9.5h-0.4L597.1-3380.3z M170.2-3338.6L100.1-3220h123.8l67.2-118.6H170.2z"/>
	</g>
</g>
<g>
	<path class="st2" d="M-786.8,1501.4l-51.5-137.7l-7.1-19.1l-32-85.6l-50-133.6l-36.5-97.6v0h-128.8l-216.8,571.2h127.2l44.8-127.2
		h213.6l43.2,127.2h130.4L-786.8,1501.4z M-1104.7,1378.2l74.4-209.6h1.6l31,90.4l29.4,85.6l4.3,12.6l7.2,21H-1104.7z"/>
</g>
<g>
	<path class="st2" d="M-590.3,1288.6c50.4-24.8,77.6-62.4,77.6-119.2c0-106.4-73.6-141.6-182.4-141.6h-268.8v329.4l7.2,21h-7.2v93.6
		h40l43.2,127.2h193.6c103.2,0,201.6-49.6,201.6-165.6C-485.5,1362.2-519.9,1308.6-590.3,1288.6z M-927.4,1125.4h206.7
		c44.8,0,86.4,12,86.4,65.6c0,48-32,68-76.8,68h-166.3L-927.4,1125.4z M-703.9,1501.4h-134.4v-137.7l-7.1-19.1h143.9
		c54.4,0,90.4,23.2,90.4,81.6C-611.1,1485.4-655.1,1501.4-703.9,1501.4z"/>
</g>
<g>
	<path class="st2" d="M2377,1434.9l-21,7.2l-93.6,32.8l-127.2,43.2v193.6c0,103.2,49.6,201.6,165.6,201.6
		c71.2,0,124.8-34.4,144.8-104.8c24.8,50.4,62.4,77.6,119.2,77.6c106.4,0,141.6-73.6,141.6-182.4v-268.8H2377z M2389.6,1697.4
		c0,54.4-23.2,90.4-81.6,90.4c-59.2,0-75.2-44-75.2-92.8v-134.4h137.7l4.2-1.6l14.8-5.5V1697.4z M2608.8,1678.2
		c0,44.8-12,86.4-65.6,86.4c-48,0-68-32-68-76.8v-166.3l133.6-50V1678.2z"/>
</g>
<g>
	<g>
		<path class="st2" d="M614.5-790.6l-0.2-0.5L545.8-969l-0.1-0.3l-27.7-71.9l-60.6-157.4l-31.6-82.1H319.3l-31.5,82.1L100.1-709.5
			h103.2l53.6-151.2h228l53.6,151.2h107.2L614.5-790.6z M284.1-936.7l86.4-245.6h2.4l49.2,141.1l4.2,12.2l20.8,59.8l11.2,32.2
			l0.1,0.3H284.1z"/>
	</g>
	<g>
		<path class="st2" d="M792.7-1015.6v-1.6c52-22.4,81.6-63.9,81.6-121.5c0-95.1-67.2-141.5-169.6-141.5l-158.2-0.3l-120.8-0.2
			l0.2,82.1l0.4,157.4l0,11.9l20.9,60l11.2,32.2h-31.9v0.3l0.2,75.6v0.4h58.1l53.6,151.2h151c148,0,210.4-69.5,210.4-159
			C899.9-946.1,863.1-1000.5,792.7-1015.6z M457.3-1198.7h233c54.4,0,84,20.8,84,78.3c0,51.1-36,79.1-84,79.1H517.9L457.3-1198.7z
			 M703.9-791.1H527.1v-178.2h176.8c60.8,0,96,31.2,96,87.9C799.9-823.8,764.7-791.1,703.9-791.1z"/>
	</g>
</g>
<text transform="matrix(1 0 0 1 2669.9631 986.3924)" class="st2" style="font-family:'HelveticaNeueLTPro-Blk'; font-size:800px;">&gt;</text>
<g>
	<path class="st3" d="M2394.9,1187.9L2394.9,1187.9l-123.2-46.8l-136.5-51.8v127.2l127.2,44.8l93.6,32.8l209.6,74.4v1.6l-90.4,31
		l-85.6,29.4l-12.6,4.3l-21,7.2l-93.6,32.8l-127.2,43.2v130.4l97.6-36.5l65.4-24.5l72.3-27l4.2-1.6l14.8-5.5l85.6-32l133.6-50
		l97.6-36.5h0v-128.8L2394.9,1187.9z"/>
	<polygon class="st2" points="2356,1294.2 2356,1442.2 2262.4,1474.9 2262.4,1261.4 	"/>
</g>
<path class="st0" d="M200-2707.3h600c110.5,0,200,89.5,200,200v600c0,110.5-89.5,200-200,200H200c-110.5,0-200-89.5-200-200v-600
	C0-2617.8,89.5-2707.3,200-2707.3z"/>
<g>
	<g>
		<path class="st3" d="M570.9-2258.8v0.8h0.1L570.9-2258.8z"/>
	</g>
	<g>
		<path class="st3" d="M802.2-2230.5c47-23.1,72.4-58.2,72.4-111.2c0-99.2-68.6-132.1-170.1-132.1H535.1l15.2,91h130.3
			c41.8,0,80.6,11.2,80.6,61.2c0,44.8-29.8,63.4-71.6,63.4H571l13.3,79.8h114.2c50.7,0,84.3,21.6,84.3,76.1
			c0,55.2-41,70.1-86.6,70.1h-87.5l15.2,91h88c96.2,0,188-46.3,188-154.4C899.9-2161.8,867.8-2211.8,802.2-2230.5z"/>
		<path class="st3" d="M170.2-2059.6L100.1-1941h123.8l67.2-118.6H170.2z M597.1-2101.3l-1.5-9.3l-11.3-67.6l-13.3-79.8h-0.1v-0.8
			l-20.6-123.8l-15.2-91H414.9l-53.8,91l-139.3,235.8h115.6l114.9-211.9h1.5l24.9,202.4l1.2,9.5h-0.4L597.1-2101.3z M608.7-2032
			l-10.1-60.7l-1.4-8.6l-107.6,41.7h0.8l1.2,8.4l15.9,110.2h116.4L608.7-2032z"/>
	</g>
</g>
<polygon class="st0" points="597.1,-2101.3 489.5,-2059.6 170.2,-2059.6 221.8,-2146.9 479.4,-2146.9 "/>
<path class="st4" d="M200,0h600c110.5,0,200,89.5,200,200v600c0,110.5-89.5,200-200,200H200C89.5,1000,0,910.5,0,800V200
	C0,89.5,89.5,0,200,0z"/>
<g>
	<g>
		<path class="st5" d="M570.9,448.5v0.8h0.1L570.9,448.5z"/>
	</g>
	<g>
		<path class="st5" d="M802.2,476.9c47-23.1,72.4-58.2,72.4-111.2c0-99.2-68.6-132.1-170.1-132.1H535.1l15.2,91h130.3
			c41.8,0,80.6,11.2,80.6,61.2c0,44.8-29.8,63.4-71.6,63.4H571l13.3,79.8h114.2c50.7,0,84.3,21.6,84.3,76.1
			c0,55.2-41,70.1-86.6,70.1h-87.5l15.2,91h88c96.2,0,188-46.3,188-154.5C899.9,545.5,867.8,495.5,802.2,476.9z"/>
		<path class="st5" d="M170.2,647.7l-70.1,118.6h123.8l67.2-118.6H170.2z M597.1,606l-1.5-9.3l-11.3-67.6L571,449.3h-0.1v-0.8
			l-20.6-123.8l-15.2-91H414.9l-53.8,91L221.8,560.4h115.6l114.9-211.9h1.5L478.7,551l1.2,9.5h-0.4L597.1,606z M608.7,675.3
			l-10.1-60.7l-1.4-8.6l-107.6,41.7h0.8l1.2,8.4l15.9,110.2h116.4L608.7,675.3z"/>
	</g>
</g>
<polygon class="st6" points="597.1,606 489.5,647.7 170.2,647.7 221.8,560.4 479.4,560.4 "/>
</svg>
