<?xml version="1.0" standalone="no"?>
<!DOCTYPE svg PUBLIC "-//W3C//DTD SVG 20010904//EN"
 "http://www.w3.org/TR/2001/REC-SVG-20010904/DTD/svg10.dtd">
<svg version="1.0" xmlns="http://www.w3.org/2000/svg"
 width="800.000000pt" height="800.000000pt" viewBox="0 0 800.000000 800.000000"
 preserveAspectRatio="xMidYMid meet">
<metadata>
Created by potrace 1.14, written by Peter Selinger 2001-2017
</metadata>
<g transform="translate(0.000000,800.000000) scale(0.100000,-0.100000)"
fill="#000000" stroke="none">
<path d="M2390 6656 l0 -954 -25 -16 c-14 -9 -25 -14 -25 -12 0 10 -188 -109
-278 -177 -120 -89 -288 -256 -377 -376 l-70 -93 -3 481 c-2 449 -3 481 -20
481 -23 1 -1553 1 -1574 1 -17 -1 -18 -139 -18 -2754 l0 -2754 68 -1 c94 -2
90 -2 165 0 37 2 67 1 67 -2 0 -3 9 -6 20 -6 11 0 20 3 20 6 0 8 274 5 288 -4
6 -4 12 -4 12 1 0 4 31 8 70 8 38 0 70 -2 70 -5 0 -3 9 -6 20 -6 11 0 20 3 20
6 0 3 64 4 142 3 79 -2 148 -3 153 -3 6 0 40 1 78 2 37 2 67 1 67 -2 0 -3 9
-6 20 -6 11 0 20 3 20 6 0 8 274 5 288 -4 6 -4 12 -3 12 1 0 10 123 8 139 -2
7 -4 11 8 11 32 0 21 2 643 4 1383 3 1224 5 1401 22 1480 3 14 7 36 9 50 3 21
14 71 29 130 23 90 86 225 141 299 18 25 140 145 175 173 38 30 230 131 230
122 0 -4 7 -1 15 6 13 11 15 110 15 781 l0 769 70 35 c105 53 256 98 435 129
17 3 55 10 85 17 30 6 66 12 80 14 14 2 39 5 55 9 43 7 153 25 200 31 22 3 51
7 64 10 13 2 49 7 80 10 31 4 67 9 81 11 34 6 75 12 135 20 28 3 66 8 85 10
19 3 51 7 70 9 19 2 35 4 35 5 0 1 16 3 35 4 19 2 62 6 95 10 33 4 78 10 99
12 22 2 42 6 44 9 4 4 6 1500 3 1553 -1 9 -183 12 -876 12 l-875 0 0 -954z"/>
<path d="M5546 6163 c-2 -3 -46 -6 -98 -8 -115 -5 -336 -20 -443 -30 -27 -3
-81 -7 -120 -10 -68 -5 -139 -11 -220 -20 -22 -3 -71 -7 -110 -10 -38 -3 -83
-8 -100 -10 -16 -3 -57 -7 -90 -10 -74 -6 -163 -16 -184 -20 -9 -2 -21 -4 -26
-4 -12 -1 -15 -1805 -3 -1817 5 -4 65 -9 135 -11 175 -4 378 -11 378 -12 0 -1
77 -4 170 -6 243 -7 307 -11 645 -31 36 -2 79 -5 95 -6 l30 -3 0 999 0 1000
-27 7 c-15 4 -29 5 -32 2z"/>
<path d="M2897 4234 c-1 -1 -56 -4 -122 -7 -66 -4 -133 -9 -150 -12 -16 -3
-39 -8 -50 -10 -20 -3 -101 -23 -120 -29 -5 -2 -22 -6 -37 -11 l-28 -7 -1
-907 c0 -929 0 -1010 6 -1096 7 -96 31 -253 50 -335 3 -14 8 -34 10 -45 36
-166 157 -460 249 -605 182 -284 443 -498 761 -627 89 -36 245 -87 300 -98 6
-2 44 -10 85 -18 170 -37 238 -42 515 -41 258 0 377 8 495 30 14 3 39 7 55 9
17 3 53 9 80 15 28 6 59 12 70 14 102 22 302 97 443 169 l102 51 0 764 0 764
-54 -30 c-30 -17 -57 -28 -60 -25 -3 4 -6 2 -6 -4 0 -19 -221 -90 -335 -107
-22 -4 -56 -9 -75 -13 -51 -9 -368 -9 -415 -1 -51 10 -66 14 -85 21 -8 3 -36
13 -62 22 -163 59 -291 213 -337 405 -33 135 -34 168 -35 992 0 672 -2 756
-16 756 -8 0 -157 3 -330 7 -278 6 -899 12 -903 9z"/>
<path d="M7937 2534 c-2 -2 -96 -13 -157 -19 -25 -2 -58 -7 -75 -9 -16 -3 -57
-8 -90 -12 -33 -3 -69 -8 -80 -10 -11 -2 -38 -6 -60 -9 -22 -2 -54 -6 -70 -9
-17 -3 -52 -8 -80 -11 -27 -3 -61 -8 -75 -10 -37 -5 -101 -16 -130 -21 -14 -2
-45 -6 -70 -10 -25 -3 -52 -7 -60 -9 -8 -3 -33 -7 -55 -10 -75 -11 -144 -24
-166 -31 -9 -2 -32 -7 -52 -9 -19 -3 -46 -9 -61 -15 -14 -5 -26 -8 -26 -6 0 4
-86 -18 -185 -47 -27 -8 -69 -24 -92 -36 -23 -12 -46 -21 -50 -21 -4 0 -19 -9
-31 -18 l-24 -18 1 -750 c0 -412 0 -759 1 -770 l0 -21 55 18 c49 16 128 34
205 45 116 18 597 19 1370 2 l115 -3 3 911 2 912 -31 -2 c-17 0 -31 -1 -32 -2z"/>
</g>
</svg>
